<svg xmlns="http://www.w3.org/2000/svg" version="1.1" xmlns:xlink="http://www.w3.org/1999/xlink" xmlns:svgjs="http://svgjs.dev/svgjs" width="128" height="128" viewBox="0 0 128 128"><g transform="matrix(0.8046875,0,0,0.8046875,12.221578124999994,12.20023143785717)"><svg viewBox="0 0 96 96" data-background-color="#191919" preserveAspectRatio="xMidYMid meet" height="128" width="128" xmlns="http://www.w3.org/2000/svg" xmlns:xlink="http://www.w3.org/1999/xlink"><g id="tight-bounds" transform="matrix(1,0,0,1,0.25950000000000273,0.27939594141467694)"><svg viewBox="0 0 95.481 95.44120811717066" height="95.44120811717066" width="95.481"><g><svg viewBox="0 0 95.481 95.44120811717066" height="95.44120811717066" width="95.481"><g><svg viewBox="0 0 95.481 95.44120811717066" height="95.44120811717066" width="95.481"><g id="textblocktransform"><svg viewBox="0 0 95.481 95.44120811717066" height="95.44120811717066" width="95.481" id="textblock"><g><svg viewBox="0 0 95.481 95.44120811717066" height="95.44120811717066" width="95.481"><g><svg viewBox="0 0 95.481 95.44120811717066" height="95.44120811717066" width="95.481"><g><svg xmlns="http://www.w3.org/2000/svg" xmlns:xlink="http://www.w3.org/1999/xlink" version="1.1" x="0" y="0" viewBox="10.394511209072377 10.40697012171803 59.21085956033433 59.18618332542006" enable-background="new 0 0 80 80" xml:space="preserve" height="95.44120811717066" width="95.481" class="icon-icon-0" data-fill-palette-color="accent" id="icon-0"><g fill="#caff33" data-fill-palette-color="accent"><path d="M44.832 45.217C50.094 39.956 54.207 34.16 56.414 28.897 58.71 23.422 58.677 19.11 56.322 16.756 55.134 15.568 53.46 14.966 51.342 14.966 45.146 14.966 35.929 20.179 27.862 28.246 16.66 39.448 11.613 51.949 16.371 56.707 17.559 57.895 19.235 58.497 21.352 58.497 27.548 58.497 36.765 53.284 44.832 45.217" fill="#caff33" data-fill-palette-color="accent"></path><path d="M66.848 20.904L61.417 14.274A8 8 0 0 0 60.416 13.052C54.072 6.708 38.697 12.143 25.414 25.427 12.131 38.709 6.695 54.084 13.04 60.428 13.064 60.452 13.091 60.473 13.116 60.497L13.115 60.495 13.118 60.497C13.456 60.827 13.821 61.123 14.207 61.388L20.819 66.792C27.269 73.241 42.013 68.226 55.114 55.125 68.215 42.023 73.229 27.28 66.848 20.904M63.029 19.391L65.366 22.244C66.605 23.484 67.288 25.173 67.471 27.178L62.905 22.611 62.9 22.637C63.049 21.5 63.096 20.413 63.029 19.391M26.828 26.84C38.902 14.767 53.636 9.1 59.002 14.466S58.702 34.565 46.628 46.639 19.82 64.38 14.454 59.014 14.754 38.914 26.828 26.84M22.159 65.311L19.382 63.041C20.403 63.106 21.49 63.061 22.625 62.913L22.601 62.917 27.138 67.453C25.119 67.261 23.416 66.566 22.159 65.311M29.932 67.42L24.985 62.474A29 29 0 0 0 27.435 61.768L32.611 66.946C31.684 67.172 30.791 67.329 29.932 67.42M34.797 66.302L29.497 61.002 29.49 61.005A40 40 0 0 0 31.712 60.02L31.684 60.035 37.078 65.428C36.303 65.757 35.543 66.049 34.797 66.302M39.015 64.538L33.554 59.077A48 48 0 0 0 35.566 57.933L41.082 63.449C40.387 63.84 39.698 64.201 39.015 64.538M42.856 62.396L37.305 56.844 37.294 56.851C37.922 56.442 38.554 56.018 39.185 55.571L44.768 61.154A55 55 0 0 1 42.856 62.396M46.423 59.979L40.816 54.371 40.81 54.376A64 64 0 0 0 42.583 52.983L48.213 58.613C47.616 59.086 47.021 59.541 46.423 59.979M49.763 57.335L44.123 51.695A72 72 0 0 0 45.811 50.189L45.791 50.208 51.444 55.862C50.888 56.37 50.325 56.857 49.763 57.335M53.698 53.71C53.434 53.975 53.167 54.232 52.901 54.49L47.244 48.833 47.228 48.848C47.5 48.584 47.772 48.324 48.041 48.054S48.572 47.512 48.835 47.241L48.82 47.257 54.477 52.914C54.221 53.179 53.963 53.446 53.698 53.71M55.852 51.456L50.197 45.803C50.191 45.809 50.184 45.815 50.179 45.822A68 68 0 0 0 51.683 44.134L57.324 49.776A71 71 0 0 1 55.852 51.456M58.601 48.225L52.971 42.594A64 64 0 0 0 54.36 40.827L59.968 46.435A61 61 0 0 1 58.601 48.225M61.142 44.781L55.559 39.196A55 55 0 0 0 56.839 37.305L56.832 37.317 62.385 42.87A52 52 0 0 1 61.142 44.781M63.44 41.097L57.921 35.579A49 49 0 0 0 59.064 33.567L64.53 39.033A44 44 0 0 1 63.44 41.097M65.422 37.096L60.022 31.695 60.013 31.713A39 39 0 0 0 60.991 29.509L66.3 34.818A33 33 0 0 1 65.422 37.096M66.947 32.637L61.757 27.446C62.036 26.613 62.272 25.796 62.462 24.997L67.43 29.965A20 20 0 0 1 66.947 32.637" fill="#caff33" data-fill-palette-color="accent"></path></g></svg></g></svg></g></svg></g></svg></g></svg></g></svg></g><defs></defs></svg><rect width="95.481" height="95.44120811717066" fill="none" stroke="none" visibility="hidden"></rect></g></svg></g></svg>