<svg xmlns="http://www.w3.org/2000/svg" version="1.1" xmlns:xlink="http://www.w3.org/1999/xlink" xmlns:svgjs="http://svgjs.dev/svgjs" width="1500" height="1500" viewBox="0 0 1500 1500"><rect width="1500" height="1500" fill="#191919"></rect><g transform="matrix(0.6666666666666666,0,0,0.6666666666666666,249.39393939393932,658.2295661692843)"><svg viewBox="0 0 396 72" data-background-color="#191919" preserveAspectRatio="xMidYMid meet" height="272" width="1500" xmlns="http://www.w3.org/2000/svg" xmlns:xlink="http://www.w3.org/1999/xlink"><g id="tight-bounds" transform="matrix(1,0,0,1,0.24000000000003752,0.4382604916077355)"><svg viewBox="0 0 395.5199999999999 71.12347901678454" height="71.12347901678454" width="395.5199999999999"><g><svg viewBox="0 0 506.8346924219985 91.14038888413852" height="71.12347901678454" width="395.5199999999999"><g transform="matrix(1,0,0,1,111.31469242199853,13.86433723813596)"><svg viewBox="0 0 395.52 63.4117144078666" height="63.4117144078666" width="395.52"><g id="textblocktransform"><svg viewBox="0 0 395.52 63.4117144078666" height="63.4117144078666" width="395.52" id="textblock"><g><svg viewBox="0 0 395.52 63.4117144078666" height="63.4117144078666" width="395.52"><g transform="matrix(1,0,0,1,0,0)"><svg width="395.52" viewBox="4.9 -37 233.88 37.5" height="63.4117144078666" data-palette-color="#ffffff"><path d="M20 0L4.9 0 4.9-35 19.5-35Q22.85-35 25.15-34 27.45-33 28.63-31.03 29.8-29.05 29.8-26.2L29.8-26.2Q29.8-23.35 28.23-21.35 26.65-19.35 23.85-18.6L23.85-18.6 23.85-19.6Q26.2-19.1 27.95-17.82 29.7-16.55 30.68-14.65 31.65-12.75 31.65-10.3L31.65-10.3Q31.65-7.8 30.88-5.88 30.1-3.95 28.58-2.65 27.05-1.35 24.9-0.68 22.75 0 20 0L20 0ZM10.3-15.3L10.3-5.2 19.7-5.2Q21.75-5.2 23.18-5.8 24.6-6.4 25.38-7.58 26.15-8.75 26.15-10.4L26.15-10.4Q26.15-11.95 25.33-13.05 24.5-14.15 23-14.73 21.5-15.3 19.45-15.3L19.45-15.3 10.3-15.3ZM10.3-29.8L10.3-20.5 19.2-20.5Q20.7-20.5 21.88-21.1 23.05-21.7 23.73-22.75 24.4-23.8 24.4-25.15L24.4-25.15Q24.4-27.4 22.9-28.6 21.4-29.8 18.6-29.8L18.6-29.8 10.3-29.8ZM47.7 0.5L47.7 0.5Q44.45 0.5 41.77-1.3 39.1-3.1 37.5-6.2 35.9-9.3 35.9-13.2L35.9-13.2Q35.9-17.15 37.52-20.23 39.15-23.3 41.92-25.05 44.7-26.8 48.15-26.8L48.15-26.8Q50.2-26.8 51.9-26.2 53.6-25.6 54.87-24.53 56.15-23.45 56.97-22.05 57.8-20.65 58-19.05L58-19.05 56.85-19.45 56.85-26.25 62.05-26.25 62.05 0 56.85 0 56.85-6.25 58.05-6.6Q57.75-5.25 56.82-3.98 55.9-2.7 54.47-1.7 53.05-0.7 51.32-0.1 49.6 0.5 47.7 0.5ZM49.05-4.25L49.05-4.25Q51.4-4.25 53.2-5.4 55-6.55 56.02-8.58 57.05-10.6 57.05-13.2L57.05-13.2Q57.05-15.75 56.02-17.75 55-19.75 53.2-20.9 51.4-22.05 49.05-22.05L49.05-22.05Q46.75-22.05 44.97-20.9 43.2-19.75 42.17-17.75 41.15-15.75 41.15-13.2L41.15-13.2Q41.15-10.6 42.17-8.58 43.2-6.55 44.97-5.4 46.75-4.25 49.05-4.25ZM69.25 0L69.25 0 69.25-26.25 74.4-26.25 74.4-20.85 73.5-20.25Q74-22 75.45-23.48 76.9-24.95 78.9-25.88 80.9-26.8 83-26.8L83-26.8Q86-26.8 88-25.63 90-24.45 91-22.05 92-19.65 92-16L92-16 92 0 86.85 0 86.85-15.65Q86.85-17.9 86.25-19.38 85.65-20.85 84.4-21.53 83.15-22.2 81.3-22.1L81.3-22.1Q79.8-22.1 78.55-21.63 77.3-21.15 76.37-20.3 75.45-19.45 74.92-18.32 74.4-17.2 74.4-15.9L74.4-15.9 74.4 0 71.85 0Q71.2 0 70.55 0 69.9 0 69.25 0ZM122.94-26.25L103.69-8.2 103.44-13.8 115.99-26.25 122.94-26.25ZM104.14 0L98.99 0 98.99-37 104.14-37 104.14 0ZM123.29 0L116.69 0 106.79-11.55 110.44-14.9 123.29 0ZM134.09 0L128.69 0 128.69-35 133.54-35 154.94-6.35 154.14-5.9Q153.94-7.15 153.79-8.63 153.64-10.1 153.52-11.78 153.39-13.45 153.32-15.33 153.24-17.2 153.19-19.25 153.14-21.3 153.14-23.5L153.14-23.5 153.14-35 158.54-35 158.54 0 153.59 0 132.54-27.6 133.09-28.3Q133.34-25.25 133.52-23.13 133.69-21 133.82-19.53 133.94-18.05 133.99-17.13 134.04-16.2 134.07-15.6 134.09-15 134.09-14.55L134.09-14.55 134.09 0ZM179.29 0.5L179.29 0.5Q175.24 0.5 172.11-1.23 168.99-2.95 167.21-5.95 165.44-8.95 165.44-12.85L165.44-12.85Q165.44-15.95 166.44-18.5 167.44-21.05 169.21-22.93 170.99-24.8 173.46-25.83 175.94-26.85 178.84-26.85L178.84-26.85Q181.39-26.85 183.59-25.88 185.79-24.9 187.41-23.2 189.04-21.5 189.91-19.18 190.79-16.85 190.74-14.1L190.74-14.1 190.69-11.9 169.24-11.9 168.09-16 186.24-16 185.49-15.15 185.49-16.35Q185.34-18 184.39-19.3 183.44-20.6 181.99-21.35 180.54-22.1 178.84-22.1L178.84-22.1Q176.14-22.1 174.29-21.08 172.44-20.05 171.49-18.07 170.54-16.1 170.54-13.2L170.54-13.2Q170.54-10.45 171.69-8.43 172.84-6.4 174.94-5.3 177.04-4.2 179.79-4.2L179.79-4.2Q181.74-4.2 183.41-4.85 185.09-5.5 187.04-7.2L187.04-7.2 189.64-3.55Q188.44-2.35 186.71-1.45 184.99-0.55 183.06-0.03 181.14 0.5 179.29 0.5ZM219.94 0L213.64 0 205.14-11.05 204.39-12 193.34-26.25 199.84-26.25 208.19-15.35 209.04-14.25 219.94 0ZM199.49 0L193.39 0 203.74-13.5 206.79-9.85 199.49 0ZM219.04-26.25L209.34-12.7 206.49-16.3 212.94-26.25 219.04-26.25ZM232.68 0L227.53 0 227.53-32.95 232.68-32.95 232.68 0ZM238.78-21.25L222.08-21.25 222.08-26.25 238.78-26.25 238.78-21.25Z" opacity="1" transform="matrix(1,0,0,1,0,0)" fill="#ffffff" class="wordmark-text-0" data-fill-palette-color="primary" id="text-0"></path></svg></g></svg></g></svg></g></svg></g><g><svg viewBox="0 0 96.34470853144701 91.14038888413852" height="91.14038888413852" width="96.34470853144701"><g><svg xmlns="http://www.w3.org/2000/svg" xmlns:xlink="http://www.w3.org/1999/xlink" version="1.1" x="0" y="0" viewBox="0.005 2.7035 99.995 94.59349999999999" enable-background="new 0 0 100 100" xml:space="preserve" height="91.14038888413852" width="96.34470853144701" class="icon-icon-0" data-fill-palette-color="accent" id="icon-0"><path d="M98.764 24.607L51.238 2.936C50.555 2.626 49.448 2.626 48.766 2.936L1.241 24.607C0.558 24.919 0.005 25.775 0.005 26.522V36.448H9.46V81.081C9.46 81.828 10.065 82.433 10.812 82.433H24.325C25.072 82.433 25.677 81.829 25.677 81.081V36.448H41.893V81.081C41.893 81.828 42.498 82.433 43.244 82.433H56.758C57.505 82.433 58.11 81.829 58.11 81.081V36.448H74.326V81.081A1.35 1.35 0 0 0 75.677 82.433H89.192C89.939 82.433 90.544 81.829 90.544 81.081V36.448H100V26.522C100 25.776 99.447 24.919 98.764 24.607" fill="#caff33" data-fill-palette-color="accent"></path><path d="M94.595 97.297H5.405A5.406 5.406 0 0 1 5.405 86.487H94.594A5.406 5.406 0 0 1 99.999 91.892 5.404 5.404 0 0 1 94.595 97.297" fill="#caff33" data-fill-palette-color="accent"></path></svg></g></svg></g></svg></g><defs></defs></svg><rect width="395.5199999999999" height="71.12347901678454" fill="none" stroke="none" visibility="hidden"></rect></g></svg></g></svg>