<svg xmlns="http://www.w3.org/2000/svg" xmlns:xlink="http://www.w3.org/1999/xlink" viewBox="0 0 1495.56 268.94"><defs><style>.cls-1{fill:none;}.cls-2{fill:#fff;}.cls-3{clip-path:url(#clip-path);}.cls-4{fill:#caff33;}.cls-5{clip-path:url(#clip-path-2);}</style><clipPath id="clip-path" transform="translate(0 0)"><rect class="cls-1" width="284.29" height="227"/></clipPath><clipPath id="clip-path-2" transform="translate(0 0)"><rect class="cls-1" y="238" width="284.29" height="30.94"/></clipPath></defs><g id="Layer_2" data-name="Layer 2"><g id="Layer_1-2" data-name="Layer 1"><path class="cls-2" d="M1435.72,121.1h-74.44V98.81h74.44Zm-27.19,94.72h-23V68.94h23Zm-60.8-117-43.23,60.4-12.71-16.05,28.75-44.35Zm-87.14,117H1233.4l46.13-60.18,13.6,16.27Zm91.16,0h-28.09l-37.88-49.26-3.35-4.23-49.25-63.52h29l37.22,48.59,3.79,4.9ZM1170.55,218q-18,0-32-7.7a56.81,56.81,0,0,1-21.84-21.05q-7.89-13.36-7.89-30.75a68.52,68.52,0,0,1,4.45-25.19,61.13,61.13,0,0,1,12.35-19.74,55.07,55.07,0,0,1,19-12.93,62.4,62.4,0,0,1,24-4.54,52,52,0,0,1,21.17,4.32,53,53,0,0,1,17,12,51.93,51.93,0,0,1,11.14,17.92,60.27,60.27,0,0,1,3.7,22.64l-.22,9.8h-95.61l-5.13-18.27h80.9l-3.34,3.79v-5.35a25.81,25.81,0,0,0-4.91-13.15,30.35,30.35,0,0,0-24.73-12.48q-12,0-20.28,4.55a29.61,29.61,0,0,0-12.49,13.41q-4.23,8.79-4.23,21.71,0,12.26,5.13,21.26a34.79,34.79,0,0,0,14.48,13.95,45.92,45.92,0,0,0,21.62,4.91,44.17,44.17,0,0,0,16.14-2.9q7.49-2.89,16.18-10.47L1216.68,200a52.56,52.56,0,0,1-13,9.37,79.93,79.93,0,0,1-16.27,6.32A62.82,62.82,0,0,1,1170.55,218Zm-201.47-2.22H945v-156h21.62L1062,187.51l-3.57,2c-.59-3.71-1.12-7.77-1.56-12.17s-.85-9-1.2-14-.69-10.24-.9-15.82-.43-11.39-.58-17.48-.22-12.4-.22-18.94V59.81h24.07v156H1056l-93.83-123,2.45-3.12q1.11,13.6,1.92,23t1.34,16.05c.35,4.39.6,8,.75,10.69s.27,5,.36,6.82.09,3.35.09,4.68Zm-48.14,0H891.52l-44.13-51.49,16.27-14.93Zm-85.36,0h-23V50.89h23Zm83.8-117-85.81,80.46-1.11-25,55.94-55.5Zm-239.32,117v-117h23v24.07l-4,2.68a33.8,33.8,0,0,1,8.7-14.4,52.22,52.22,0,0,1,15.38-10.7,43.32,43.32,0,0,1,18.27-4.1q13.38,0,22.29,5.22t13.37,16q4.46,10.71,4.46,27v71.32h-23V146.06q0-10-2.68-16.63a18.31,18.31,0,0,0-8.24-9.58q-5.57-3-13.82-2.54a34.65,34.65,0,0,0-12.25,2.09,30.47,30.47,0,0,0-9.72,5.93,28.43,28.43,0,0,0-6.47,8.83A25.37,25.37,0,0,0,703,145v70.87h-23Zm-90-18.95a33.66,33.66,0,0,0,18.5-5.12,35.1,35.1,0,0,0,12.57-14.18A44.68,44.68,0,0,0,625.68,157a43.65,43.65,0,0,0-4.59-20.28,35.29,35.29,0,0,0-12.57-14,33.58,33.58,0,0,0-18.5-5.13,32.72,32.72,0,0,0-18.18,5.13,35.93,35.93,0,0,0-12.49,14A44,44,0,0,0,554.81,157a45,45,0,0,0,4.54,20.59,35.73,35.73,0,0,0,12.49,14.18A32.79,32.79,0,0,0,590,196.87ZM584,218a46.38,46.38,0,0,1-26.43-8,57.6,57.6,0,0,1-19-21.84q-7.14-13.81-7.13-31.2,0-17.61,7.22-31.33a55.7,55.7,0,0,1,19.61-21.49A51.05,51.05,0,0,1,586,96.36,49.82,49.82,0,0,1,602.73,99a41.91,41.91,0,0,1,22.59,18.49,34.35,34.35,0,0,1,4.6,13.38l-5.13-1.79V98.81H648v117H624.79V188l5.35-1.56a31.16,31.16,0,0,1-5.49,11.68,43.17,43.17,0,0,1-10.47,10.16,56.2,56.2,0,0,1-14,7.13A48.71,48.71,0,0,1,584,218ZM417.3,83v41.45H457a26,26,0,0,0,11.94-2.67,21.11,21.11,0,0,0,8.25-7.36,19.45,19.45,0,0,0,3-10.7q0-10-6.69-15.37T454.3,83Zm0,64.63v45h41.9A39.94,39.94,0,0,0,474.71,190a21.35,21.35,0,0,0,9.81-7.93A22.43,22.43,0,0,0,488,169.46a19.18,19.18,0,0,0-3.66-11.81,23,23,0,0,0-10.38-7.49,44.65,44.65,0,0,0-15.83-2.54Zm43.23,68.2h-67.3v-156h65.08q14.93,0,25.18,4.46A32.58,32.58,0,0,1,499,77.5q5.22,8.84,5.22,21.54t-7,21.61q-7.05,8.91-19.52,12.26v-4.46A47.12,47.12,0,0,1,496,136.39a39.69,39.69,0,0,1,12.17,14.13,42,42,0,0,1,4.32,19.39,52.6,52.6,0,0,1-3.43,19.7A36.81,36.81,0,0,1,498.78,204a46.35,46.35,0,0,1-16.4,8.78A72.43,72.43,0,0,1,460.53,215.82Z" transform="translate(0 0)"/><rect class="cls-1" x="328.47" y="40.91" width="1167.09" height="187.11"/><g class="cls-3"><path class="cls-4" d="M280.78,62.27,145.66.66a9.69,9.69,0,0,0-7,0L3.51,62.27A6.52,6.52,0,0,0,0,67.72V95.94H26.88V222.83a3.84,3.84,0,0,0,3.84,3.85H69.14A3.84,3.84,0,0,0,73,222.83V95.94h46.11V222.83a3.84,3.84,0,0,0,3.84,3.85h38.42a3.85,3.85,0,0,0,3.85-3.85V95.94h46.1V222.83a3.84,3.84,0,0,0,3.84,3.85h38.42a3.85,3.85,0,0,0,3.85-3.85V95.94h26.88V67.72a6.53,6.53,0,0,0-3.51-5.45" transform="translate(0 0)"/></g><g class="cls-5"><path class="cls-4" d="M268.93,268.94H15.35a15.37,15.37,0,0,1,0-30.74H268.92a15.37,15.37,0,0,1,0,30.74" transform="translate(0 0)"/></g></g></g></svg>