<svg width="64" height="64" viewBox="0 0 64 64" fill="none" xmlns="http://www.w3.org/2000/svg">
<rect width="64" height="64" rx="32" fill="url(#paint0_linear_1_13806)" fill-opacity="0.05"/>
<rect x="8" y="8" width="48" height="48" rx="24" fill="url(#paint1_linear_1_13806)" fill-opacity="0.1"/>
<rect x="8.5" y="8.5" width="47" height="47" rx="23.5" stroke="url(#paint2_linear_1_13806)" stroke-opacity="0.2"/>
<g clip-path="url(#clip0_1_13806)">
<path d="M34.1515 25.5027C34.1779 25.5335 34.1823 25.5423 34.1867 25.5423C34.6222 25.6039 34.8246 25.9294 35.0577 26.255C35.3261 26.6245 35.6472 26.9632 35.9903 27.2711C36.8921 28.085 37.4464 29.0704 37.6312 30.2713C37.9523 32.374 36.747 34.534 34.7674 35.3742C31.7628 36.6499 28.4064 34.7099 28.0588 31.4634C27.8741 29.7346 28.5075 28.3049 29.8272 27.1788C30.254 26.8136 30.6103 26.3913 30.905 25.9118C30.9578 25.8238 31.0546 25.7535 31.147 25.7095C31.2965 25.6391 31.4637 25.5995 31.6529 25.5335C31.5913 25.4587 31.5473 25.4059 31.4989 25.3531C31.2042 25.0496 30.9094 24.7373 30.6103 24.4425C30.5047 24.337 30.4563 24.227 30.4607 24.0774C30.4695 23.4528 30.4651 22.8325 30.4651 22.2078C30.4651 21.9571 30.773 21.5568 31.0238 21.5084C31.3097 21.4512 31.6045 21.4204 31.8904 21.3632C31.974 21.3456 32.0664 21.2928 32.1148 21.2268C32.5327 20.6638 33.2673 20.6594 33.6808 21.218C33.738 21.2928 33.848 21.35 33.9404 21.372C34.2043 21.4292 34.4727 21.46 34.741 21.5084C35.0093 21.5612 35.2953 21.9087 35.2953 22.1814C35.2953 22.8105 35.2909 23.444 35.2997 24.073C35.3041 24.2358 35.2513 24.3458 35.1413 24.4601C34.807 24.7989 34.4858 25.1464 34.1515 25.5027ZM32.3039 27.953C32.2907 28.0058 32.2775 28.0366 32.2819 28.063C32.3391 28.3577 32.2027 28.4853 31.93 28.5953C31.4109 28.8108 31.1778 29.2463 31.191 29.805C31.2042 30.3593 31.5033 30.7024 32.0048 30.8828C32.2247 30.9619 32.4535 31.0191 32.6734 31.0939C32.8758 31.1599 33.0782 31.2259 33.2717 31.3051C33.4345 31.3711 33.5269 31.4986 33.5093 31.6834C33.4917 31.8726 33.3729 31.9825 33.2057 32.0133C33.0342 32.0485 32.8494 32.0793 32.6866 32.0397C32.3699 31.9649 32.0664 31.8374 31.732 31.723C31.5825 31.9209 31.4109 32.1453 31.2042 32.4224C31.5165 32.5588 31.7848 32.6996 32.0708 32.7964C32.2335 32.8491 32.2995 32.9195 32.2775 33.0867C32.2643 33.2055 32.2731 33.3286 32.2731 33.465C32.5239 33.465 32.735 33.465 32.9462 33.465C33.2497 33.465 33.2629 33.465 33.2453 33.1527C33.2365 32.9591 33.2805 32.8535 33.4917 32.8271C33.6016 32.8139 33.7116 32.7524 33.8128 32.6952C34.2791 32.44 34.4727 32.0309 34.4639 31.5118C34.4551 31.0191 34.2087 30.6804 33.7688 30.4824C33.5708 30.3945 33.3597 30.3285 33.1485 30.2581C32.8846 30.1701 32.6206 30.0909 32.3567 29.9942C32.1939 29.9326 32.128 29.8006 32.1412 29.6246C32.1543 29.4575 32.2555 29.3431 32.4095 29.3167C32.5943 29.2859 32.7922 29.2683 32.9726 29.2991C33.1925 29.3387 33.3993 29.4399 33.6324 29.5191C33.7776 29.2947 33.9272 29.0572 34.1031 28.78C33.9008 28.6876 33.7292 28.5733 33.5445 28.5425C33.2849 28.4985 33.2057 28.3797 33.2365 28.1334C33.2453 28.0762 33.1661 27.9618 33.1177 27.9574C32.8538 27.9442 32.5767 27.953 32.3039 27.953Z" fill="#CAFF33"/>
<path d="M32.5408 43.1914C31.6038 43.1914 30.6624 43.1651 29.7254 43.2002C29.0964 43.2222 28.5597 43.0331 28.0538 42.6988C27.3367 42.2193 26.6813 41.6738 26.1094 41.0227C25.2648 40.0593 24.4114 39.0959 23.5668 38.1325C22.8761 37.3407 23.1884 36.1706 24.1738 35.8494C24.2882 35.8098 24.4202 35.7966 24.5389 35.7966C25.322 35.7922 26.1094 35.7878 26.8924 35.801C27.0024 35.801 27.1344 35.8582 27.2136 35.933C27.7503 36.4521 28.2781 36.9844 28.8016 37.5167C28.9072 37.6222 29.004 37.6442 29.1536 37.6222C29.4703 37.5739 29.7958 37.5299 30.117 37.5299C31.5994 37.5211 33.0775 37.5255 34.56 37.5255C35.0659 37.5255 35.4398 37.785 35.5718 38.2161C35.7741 38.8672 35.299 39.4786 34.5732 39.483C33.5922 39.4874 32.6068 39.483 31.6258 39.483C31.4499 39.483 31.2739 39.4786 31.0979 39.483C30.7812 39.4918 30.5745 39.6942 30.5701 39.9801C30.5701 40.2705 30.7768 40.4904 31.0891 40.4904C32.6508 40.4948 34.2125 40.4948 35.7741 40.4904C36.0909 40.4904 36.3196 40.3145 36.5396 40.1033C37.5602 39.1223 38.5807 38.1413 39.6057 37.1647C40.0236 36.7644 40.5779 36.7468 40.9738 37.1032C41.4005 37.4903 41.4093 38.1149 40.9782 38.5504C40.5251 39.0123 40.0632 39.4479 39.6057 39.8922C38.5939 40.8731 37.5822 41.8497 36.5748 42.8307C36.3284 43.0683 36.0557 43.1914 35.7082 43.1914C34.6524 43.1871 33.5966 43.1914 32.5408 43.1914Z" fill="#CAFF33"/>
<path d="M27.3055 24.6011C27.7322 25.0278 28.1589 25.4545 28.5768 25.8724C28.3173 26.1319 28.0445 26.4047 27.7718 26.673C27.3671 26.2551 26.9404 25.8152 26.5312 25.3929C26.7732 25.1466 27.0459 24.865 27.3055 24.6011Z" fill="#CAFF33"/>
<path d="M38.4139 24.6011C38.6735 24.8606 38.9418 25.1378 39.1926 25.3885C38.7746 25.8064 38.3391 26.2419 37.9168 26.6598C37.6617 26.4047 37.3933 26.1275 37.125 25.8592C37.5429 25.4501 37.974 25.0278 38.4139 24.6011Z" fill="#CAFF33"/>
<path d="M39.4269 31.5339C39.4269 31.16 39.4225 30.8169 39.4313 30.4738C39.4313 30.4298 39.5149 30.3506 39.5589 30.3506C40.0955 30.3418 40.6278 30.3418 41.1645 30.3506C41.2085 30.3506 41.2921 30.4166 41.2921 30.4518C41.3009 30.8081 41.2965 31.1644 41.2965 31.5339C40.6674 31.5339 40.0603 31.5339 39.4269 31.5339Z" fill="#CAFF33"/>
<path d="M26.2798 31.5471C25.6727 31.5471 25.1052 31.5515 24.5334 31.5427C24.4894 31.5427 24.419 31.4592 24.4146 31.4108C24.4058 31.1028 24.4014 30.7949 24.4146 30.487C24.4146 30.4386 24.5026 30.3506 24.5509 30.3506C25.0788 30.3418 25.6067 30.3418 26.1346 30.3506C26.183 30.3506 26.271 30.421 26.271 30.465C26.2842 30.8081 26.2798 31.16 26.2798 31.5471Z" fill="#CAFF33"/>
</g>
<defs>
<linearGradient id="paint0_linear_1_13806" x1="32" y1="0" x2="32" y2="64" gradientUnits="userSpaceOnUse">
<stop stop-color="#CAFF33"/>
<stop offset="1" stop-color="#CAFF33" stop-opacity="0"/>
</linearGradient>
<linearGradient id="paint1_linear_1_13806" x1="32" y1="-23.7838" x2="32" y2="131.892" gradientUnits="userSpaceOnUse">
<stop stop-color="#CAFF33"/>
<stop offset="0.467671" stop-color="#CAFF33" stop-opacity="0"/>
</linearGradient>
<linearGradient id="paint2_linear_1_13806" x1="32" y1="-75.3514" x2="32" y2="99.4595" gradientUnits="userSpaceOnUse">
<stop stop-color="#CAFF33"/>
<stop offset="0.716291" stop-color="#CAFF33" stop-opacity="0"/>
</linearGradient>
<clipPath id="clip0_1_13806">
<rect width="18.1021" height="22.4" fill="white" transform="translate(23.1992 20.8)"/>
</clipPath>
</defs>
</svg>
