<svg width="73" height="72" viewBox="0 0 73 72" fill="none" xmlns="http://www.w3.org/2000/svg">
<rect x="0.667969" width="72" height="72" rx="36" fill="url(#paint0_linear_1_13768)" fill-opacity="0.05"/>
<rect x="8.66797" y="8" width="56" height="56" rx="28" fill="url(#paint1_linear_1_13768)" fill-opacity="0.1"/>
<rect x="9.16797" y="8.5" width="55" height="55" rx="27.5" stroke="url(#paint2_linear_1_13768)" stroke-opacity="0.2"/>
<path d="M34.9215 39.4435C34.1354 39.4435 33.6749 39.001 33.6749 38.2068V37.2877C30.3729 37.0608 27.0822 36.3801 23.668 35.0752V33.2032C27.8684 35.0639 32.0801 35.722 36.6624 35.722C41.2559 35.722 45.4675 35.0639 49.668 33.2032V35.0752C46.2537 36.3801 42.963 37.0608 39.6611 37.2877V38.2068C39.6611 39.001 39.2006 39.4435 38.4144 39.4435H34.9215ZM27.1384 46.9886H46.1976C48.5224 46.9886 49.668 45.854 49.668 43.5281V32.4884C49.668 30.1624 48.5224 29.0278 46.1976 29.0278H27.1384C24.8248 29.0278 23.668 30.1624 23.668 32.4884V43.5281C23.668 45.854 24.8248 46.9886 27.1384 46.9886ZM30.9682 30.0149H32.709V28.0067C32.709 27.1444 33.2144 26.6565 34.0904 26.6565H39.2455C40.1216 26.6565 40.6157 27.1444 40.6157 28.0067V29.9923H42.3565V28.1315C42.3565 25.9985 41.2446 25 39.2119 25H34.1129C32.1924 25 30.9682 25.9985 30.9682 28.1315V30.0149Z" fill="#CAFF33"/>
<defs>
<linearGradient id="paint0_linear_1_13768" x1="36.668" y1="0" x2="36.668" y2="72" gradientUnits="userSpaceOnUse">
<stop stop-color="#CAFF33"/>
<stop offset="1" stop-color="#CAFF33" stop-opacity="0"/>
</linearGradient>
<linearGradient id="paint1_linear_1_13768" x1="36.668" y1="-29.0811" x2="36.668" y2="152.541" gradientUnits="userSpaceOnUse">
<stop stop-color="#CAFF33"/>
<stop offset="0.467671" stop-color="#CAFF33" stop-opacity="0"/>
</linearGradient>
<linearGradient id="paint2_linear_1_13768" x1="36.668" y1="-89.2432" x2="36.668" y2="114.703" gradientUnits="userSpaceOnUse">
<stop stop-color="#CAFF33"/>
<stop offset="0.716291" stop-color="#CAFF33" stop-opacity="0"/>
</linearGradient>
</defs>
</svg>
