<svg width="73" height="72" viewBox="0 0 73 72" fill="none" xmlns="http://www.w3.org/2000/svg">
<rect x="0.335938" width="72" height="72" rx="36" fill="url(#paint0_linear_1_13789)" fill-opacity="0.05"/>
<rect x="8.33594" y="8" width="56" height="56" rx="28" fill="url(#paint1_linear_1_13789)" fill-opacity="0.1"/>
<rect x="8.83594" y="8.5" width="55" height="55" rx="27.5" stroke="url(#paint2_linear_1_13789)" stroke-opacity="0.2"/>
<path d="M36.3359 30.75C34.8862 30.75 33.7109 31.9253 33.7109 33.375C33.7109 34.8247 34.8862 36 36.3359 36C37.7857 36 38.9609 34.8247 38.9609 33.375C38.9609 31.9253 37.7857 30.75 36.3359 30.75Z" fill="#CAFF33"/>
<path fill-rule="evenodd" clip-rule="evenodd" d="M24.0859 27.6875C24.0859 26.4794 25.0653 25.5 26.2734 25.5H46.3984C47.6066 25.5 48.5859 26.4794 48.5859 27.6875V39.0625C48.5859 40.2706 47.6066 41.25 46.3984 41.25H26.2734C25.0653 41.25 24.0859 40.2706 24.0859 39.0625V27.6875ZM31.9609 33.375C31.9609 30.9588 33.9197 29 36.3359 29C38.7522 29 40.7109 30.9588 40.7109 33.375C40.7109 35.7912 38.7522 37.75 36.3359 37.75C33.9197 37.75 31.9609 35.7912 31.9609 33.375ZM44.2109 32.5C43.7277 32.5 43.3359 32.8918 43.3359 33.375V33.3837C43.3359 33.867 43.7277 34.2587 44.2109 34.2587H44.2197C44.7029 34.2587 45.0947 33.867 45.0947 33.3837V33.375C45.0947 32.8918 44.7029 32.5 44.2197 32.5H44.2109ZM27.5859 33.375C27.5859 32.8918 27.9777 32.5 28.4609 32.5H28.4697C28.9529 32.5 29.3447 32.8918 29.3447 33.375V33.3837C29.3447 33.867 28.9529 34.2587 28.4697 34.2587H28.4609C27.9777 34.2587 27.5859 33.867 27.5859 33.3837V33.375Z" fill="#CAFF33"/>
<path d="M24.9609 43C24.4777 43 24.0859 43.3918 24.0859 43.875C24.0859 44.3582 24.4777 44.75 24.9609 44.75C31.261 44.75 37.3629 45.5926 43.1607 47.1707C44.5497 47.5488 45.9609 46.5196 45.9609 45.0476V43.875C45.9609 43.3918 45.5692 43 45.0859 43H24.9609Z" fill="#CAFF33"/>
<defs>
<linearGradient id="paint0_linear_1_13789" x1="36.3359" y1="0" x2="36.3359" y2="72" gradientUnits="userSpaceOnUse">
<stop stop-color="#CAFF33"/>
<stop offset="1" stop-color="#CAFF33" stop-opacity="0"/>
</linearGradient>
<linearGradient id="paint1_linear_1_13789" x1="36.3359" y1="-29.0811" x2="36.3359" y2="152.541" gradientUnits="userSpaceOnUse">
<stop stop-color="#CAFF33"/>
<stop offset="0.467671" stop-color="#CAFF33" stop-opacity="0"/>
</linearGradient>
<linearGradient id="paint2_linear_1_13789" x1="36.3359" y1="-89.2432" x2="36.3359" y2="114.703" gradientUnits="userSpaceOnUse">
<stop stop-color="#CAFF33"/>
<stop offset="0.716291" stop-color="#CAFF33" stop-opacity="0"/>
</linearGradient>
</defs>
</svg>
