<svg width="44" height="44" viewBox="0 0 44 44" fill="none" xmlns="http://www.w3.org/2000/svg">
<path d="M4.84548 20.9212L4.84547 20.9212L4.84452 20.924C3.97413 23.4975 3.53516 25.9874 3.53516 28.3915V35.5374C3.53516 36.3658 4.20673 37.0374 5.03516 37.0374H14.2323C15.0608 37.0374 15.7323 36.3658 15.7323 35.5374L15.7323 28.3117L15.7323 28.3075C15.7069 25.2764 16.1901 22.5199 17.1742 20.0315C18.0793 17.7775 19.1742 15.6054 20.4594 13.5149C20.8828 12.8261 20.7005 11.9129 20.0159 11.4567L14.9243 8.06385L14.9243 8.06385C14.3756 7.69817 13.6381 7.72759 13.1301 8.17735C11.4257 9.68639 9.87592 11.4882 8.47927 13.579L8.47858 13.5801C6.95188 15.878 5.74065 18.3253 4.84548 20.9212ZM24.5572 20.9212L24.5562 20.924C23.6858 23.4975 23.2468 25.9874 23.2468 28.3915V35.5374C23.2468 36.3658 23.9184 37.0374 24.7468 37.0374H33.944C34.7724 37.0374 35.444 36.3658 35.444 35.5374L35.444 28.3117L35.444 28.3075C35.4185 25.2765 35.9017 22.5201 36.8858 20.0318C37.7909 17.7777 38.8859 15.6055 40.1711 13.5149C40.5945 12.8261 40.4122 11.9129 39.7276 11.4567L34.636 8.06385L34.636 8.06385C34.0872 7.69817 33.3498 7.72759 32.8418 8.17735L33.1732 8.5517L32.8418 8.17735C31.1374 9.68639 29.5876 11.4882 28.1909 13.579L28.1903 13.5801C26.6636 15.878 25.4523 18.3253 24.5572 20.9212Z" fill="url(#paint0_linear_1_14004)" stroke="#CAFF33"/>
<defs>
<linearGradient id="paint0_linear_1_14004" x1="22.1528" y1="8.0668" x2="22.1528" y2="36.5374" gradientUnits="userSpaceOnUse">
<stop stop-color="#CAFF33"/>
<stop offset="1" stop-color="#191919"/>
</linearGradient>
</defs>
</svg>
