<svg width="64" height="64" viewBox="0 0 64 64" fill="none" xmlns="http://www.w3.org/2000/svg">
<rect width="64" height="64" rx="32" fill="url(#paint0_linear_1_13819)" fill-opacity="0.05"/>
<rect x="8" y="8" width="48" height="48" rx="24" fill="url(#paint1_linear_1_13819)" fill-opacity="0.1"/>
<rect x="8.5" y="8.5" width="47" height="47" rx="23.5" stroke="url(#paint2_linear_1_13819)" stroke-opacity="0.2"/>
<g clip-path="url(#clip0_1_13819)">
<path d="M39.7272 31.2148C39.7272 31.8131 39.7352 32.4075 39.7232 33.0057C39.7152 33.3285 39.8075 33.6119 39.9761 33.8795C40.4097 34.5802 40.9839 35.1666 41.566 35.7452C41.7828 35.9617 42.0077 36.1664 42.2365 36.3671C42.3489 36.4655 42.4011 36.5679 42.4011 36.7214C42.3931 37.3787 42.3931 38.0321 42.3971 38.6894C42.4011 39.2365 42.1602 39.6458 41.6584 39.8741C41.1445 40.1064 40.6627 40.008 40.2411 39.6498C39.3699 38.9019 38.5027 38.1501 37.6355 37.4023C37.0453 36.8906 36.4591 36.3711 35.8569 35.8751C35.6441 35.698 35.3912 35.5681 35.1463 35.4343C34.7849 35.2375 34.3955 35.1312 33.9739 35.1469C33.6688 35.1588 33.3556 35.1627 33.0505 35.1391C32.6048 35.1037 32.2877 34.8006 32.2274 34.3834C32.1712 34.0173 32.3921 33.6237 32.7614 33.482C32.9019 33.4269 33.0585 33.4033 33.2111 33.4033C34.3674 33.3954 35.5237 33.3993 36.6839 33.3993C37.1176 33.3993 37.2741 33.2458 37.2741 32.8168C37.2741 31.9509 37.2701 31.085 37.2741 30.219C37.2781 29.8884 37.1617 29.6286 36.9088 29.4043C35.4514 28.1211 34.002 26.8301 32.5486 25.5391C32.1592 25.1927 32.115 24.681 32.4402 24.3071C32.7614 23.9332 33.2874 23.8977 33.7009 24.2126C35.5598 25.6296 37.4147 27.0466 39.2816 28.4557C39.5907 28.6879 39.7352 28.9713 39.7312 29.3452C39.7232 29.9671 39.7272 30.589 39.7272 31.2148Z" fill="#CAFF33"/>
<path d="M20.805 37.7645C20.805 37.4103 20.809 37.056 20.801 36.7018C20.797 36.564 20.8532 36.4735 20.9455 36.379C21.5518 35.7689 22.15 35.151 22.7442 34.5291C22.8686 34.3992 22.961 34.2457 23.0694 34.104C23.3544 33.7222 23.4869 33.305 23.4749 32.8169C23.4508 31.6912 23.4789 30.5616 23.4628 29.4319C23.4548 28.9871 23.6154 28.6723 23.9808 28.3967C25.8356 27.0112 27.6704 25.6021 29.5133 24.197C29.8987 23.9018 30.4286 23.949 30.7418 24.3032C31.063 24.6654 31.0349 25.1849 30.6615 25.5234C30.0954 26.0351 29.5213 26.535 28.9512 27.0427C28.0478 27.8417 27.1445 28.6447 26.2411 29.4437C26.0283 29.6326 25.924 29.8609 25.924 30.1365C25.924 31.0536 25.9199 31.9707 25.924 32.8917C25.924 33.2302 26.1006 33.3955 26.4499 33.3955C27.6423 33.3994 28.8307 33.3955 30.0231 33.3994C30.5852 33.3994 30.9787 33.7852 30.9666 34.3047C30.9586 34.7023 30.6655 35.0604 30.26 35.1195C30.0191 35.1549 29.7662 35.1707 29.5213 35.147C28.6982 35.0683 28.0037 35.3635 27.3894 35.8437C26.7631 36.3318 26.1769 36.875 25.5787 37.3906C24.6994 38.1463 23.8242 38.9099 22.9409 39.6617C22.2263 40.2718 21.1704 40.0041 20.8652 39.1342C20.8251 39.024 20.813 38.902 20.809 38.7879C20.801 38.4494 20.805 38.1069 20.805 37.7645Z" fill="#CAFF33"/>
<path d="M32.1714 32.0295C32.1714 32.2184 32.1714 32.3955 32.1714 32.5884C31.8341 32.5884 31.5129 32.5884 31.1636 32.5884C31.1636 32.4349 31.1596 32.2853 31.1636 32.1358C31.1676 32.0256 31.1355 31.9783 31.0191 31.9508C30.6859 31.872 30.3767 31.7382 30.0876 31.5099C30.2723 31.2698 30.449 31.0415 30.6096 30.829C30.9147 30.9431 31.1917 31.077 31.4848 31.1439C31.6976 31.1911 31.9345 31.1596 32.1553 31.1242C32.3239 31.0966 32.4323 30.9668 32.4444 30.7896C32.4604 30.6086 32.3641 30.4826 32.2035 30.4196C31.9305 30.3173 31.6454 30.2386 31.3684 30.1481C31.1676 30.0811 30.9589 30.0221 30.7621 29.9395C30.3004 29.7466 30.0555 29.4042 30.0435 28.9003C30.0314 28.3729 30.2322 27.9478 30.714 27.7195C31.0271 27.57 31.2961 27.4597 31.1395 27.0228C31.4808 27.0228 31.7779 27.0189 32.079 27.0307C32.1111 27.0307 32.1673 27.1291 32.1673 27.1842C32.1874 27.5188 32.1874 27.5109 32.5046 27.6211C32.6893 27.6841 32.8659 27.7746 33.0667 27.8652C32.8981 28.121 32.7615 28.3454 32.609 28.5579C32.5849 28.5894 32.4885 28.5855 32.4323 28.5697C32.1673 28.5028 31.9104 28.4162 31.6454 28.365C31.541 28.3454 31.4206 28.3768 31.3122 28.4044C31.1516 28.4477 31.0432 28.554 31.0311 28.7272C31.0191 28.8964 31.0954 29.0263 31.252 29.0893C31.4567 29.1719 31.6655 29.2349 31.8743 29.3018C32.1031 29.3766 32.34 29.4317 32.5608 29.5144C33.1992 29.7584 33.4561 30.1441 33.424 30.7778C33.3919 31.3604 33.0265 31.7933 32.4243 31.9626C32.352 31.9862 32.2757 32.0059 32.1714 32.0295Z" fill="#CAFF33"/>
</g>
<defs>
<linearGradient id="paint0_linear_1_13819" x1="32" y1="0" x2="32" y2="64" gradientUnits="userSpaceOnUse">
<stop stop-color="#CAFF33"/>
<stop offset="1" stop-color="#CAFF33" stop-opacity="0"/>
</linearGradient>
<linearGradient id="paint1_linear_1_13819" x1="32" y1="-23.7838" x2="32" y2="131.892" gradientUnits="userSpaceOnUse">
<stop stop-color="#CAFF33"/>
<stop offset="0.467671" stop-color="#CAFF33" stop-opacity="0"/>
</linearGradient>
<linearGradient id="paint2_linear_1_13819" x1="32" y1="-75.3514" x2="32" y2="99.4595" gradientUnits="userSpaceOnUse">
<stop stop-color="#CAFF33"/>
<stop offset="0.716291" stop-color="#CAFF33" stop-opacity="0"/>
</linearGradient>
<clipPath id="clip0_1_13819">
<rect width="21.6" height="16" fill="white" transform="translate(20.8008 24)"/>
</clipPath>
</defs>
</svg>
