<svg width="20" height="20" viewBox="0 0 20 20" fill="none" xmlns="http://www.w3.org/2000/svg">
<path d="M6.2918 18.1248C13.8371 18.1248 17.9652 11.8721 17.9652 6.45137C17.9652 6.27559 17.9613 6.0959 17.9535 5.92012C18.7566 5.33937 19.4496 4.62003 20 3.7959C19.2521 4.12865 18.458 4.34597 17.6449 4.44043C18.5011 3.92724 19.1421 3.12104 19.4492 2.17129C18.6438 2.64861 17.763 2.98533 16.8445 3.16699C16.2257 2.50945 15.4075 2.07408 14.5164 1.92819C13.6253 1.7823 12.711 1.93403 11.9148 2.3599C11.1186 2.78577 10.4848 3.46207 10.1115 4.28424C9.73825 5.10641 9.64619 6.02866 9.84961 6.9084C8.21874 6.82656 6.62328 6.4029 5.16665 5.6649C3.71002 4.92689 2.42474 3.89101 1.39414 2.62441C0.870333 3.52752 0.710047 4.59619 0.945859 5.61323C1.18167 6.63026 1.79589 7.51936 2.66367 8.0998C2.01219 8.07912 1.37498 7.90372 0.804688 7.58809V7.63887C0.804104 8.58661 1.13175 9.50531 1.73192 10.2388C2.3321 10.9723 3.16777 11.4753 4.09687 11.6623C3.49338 11.8274 2.85999 11.8515 2.2457 11.7326C2.50788 12.5477 3.01798 13.2606 3.70481 13.7718C4.39164 14.283 5.22093 14.567 6.07695 14.5842C4.62369 15.7257 2.82848 16.3449 0.980469 16.342C0.652739 16.3415 0.325333 16.3214 0 16.2818C1.87738 17.4863 4.06128 18.126 6.2918 18.1248Z" fill="#262626"/>
</svg>
